<svg xmlns="http://www.w3.org/2000/svg" viewBox="0 0 568 1172" role="img" aria-labelledby="title desc" font-family="IBM Plex Sans, Helvetica, Arial, sans-serif">
  <title id="title">Current architecture</title>
  <desc id="desc">First-release pipeline: deterministic synthetic data, star Bayesian network, fixed 70/30 fusion.</desc>
  <defs>
    <marker id="arrow-flow" viewBox="0 0 10 10" refX="9" refY="5" markerWidth="7" markerHeight="7" orient="auto-start-reverse">
      <path d="M 0 0 L 10 5 L 0 10 z" fill="#20211d"/>
    </marker>
    <marker id="arrow-model" viewBox="0 0 10 10" refX="9" refY="5" markerWidth="7" markerHeight="7" orient="auto-start-reverse">
      <path d="M 0 0 L 10 5 L 0 10 z" fill="#2b5b8c"/>
    </marker>
    <marker id="arrow-intervention" viewBox="0 0 10 10" refX="9" refY="5" markerWidth="7" markerHeight="7" orient="auto-start-reverse">
      <path d="M 0 0 L 10 5 L 0 10 z" fill="#d8531f"/>
    </marker>
    <marker id="arrow-loop" viewBox="0 0 10 10" refX="9" refY="5" markerWidth="7" markerHeight="7" orient="auto-start-reverse">
      <path d="M 0 0 L 10 5 L 0 10 z" fill="#5b5f57"/>
    </marker>
  </defs>
  <rect x="0" y="0" width="568" height="1172" fill="#f2ede1"/>
  <g opacity="0.55">
<line x1="0" y1="0" x2="0" y2="1172" stroke="#20211d14"/>
<line x1="28" y1="0" x2="28" y2="1172" stroke="#20211d14"/>
<line x1="56" y1="0" x2="56" y2="1172" stroke="#20211d14"/>
<line x1="84" y1="0" x2="84" y2="1172" stroke="#20211d14"/>
<line x1="112" y1="0" x2="112" y2="1172" stroke="#20211d14"/>
<line x1="140" y1="0" x2="140" y2="1172" stroke="#20211d14"/>
<line x1="168" y1="0" x2="168" y2="1172" stroke="#20211d14"/>
<line x1="196" y1="0" x2="196" y2="1172" stroke="#20211d14"/>
<line x1="224" y1="0" x2="224" y2="1172" stroke="#20211d14"/>
<line x1="252" y1="0" x2="252" y2="1172" stroke="#20211d14"/>
<line x1="280" y1="0" x2="280" y2="1172" stroke="#20211d14"/>
<line x1="308" y1="0" x2="308" y2="1172" stroke="#20211d14"/>
<line x1="336" y1="0" x2="336" y2="1172" stroke="#20211d14"/>
<line x1="364" y1="0" x2="364" y2="1172" stroke="#20211d14"/>
<line x1="392" y1="0" x2="392" y2="1172" stroke="#20211d14"/>
<line x1="420" y1="0" x2="420" y2="1172" stroke="#20211d14"/>
<line x1="448" y1="0" x2="448" y2="1172" stroke="#20211d14"/>
<line x1="476" y1="0" x2="476" y2="1172" stroke="#20211d14"/>
<line x1="504" y1="0" x2="504" y2="1172" stroke="#20211d14"/>
<line x1="532" y1="0" x2="532" y2="1172" stroke="#20211d14"/>
<line x1="560" y1="0" x2="560" y2="1172" stroke="#20211d14"/>
<line x1="0" y1="0" x2="568" y2="0" stroke="#20211d14"/>
<line x1="0" y1="28" x2="568" y2="28" stroke="#20211d14"/>
<line x1="0" y1="56" x2="568" y2="56" stroke="#20211d14"/>
<line x1="0" y1="84" x2="568" y2="84" stroke="#20211d14"/>
<line x1="0" y1="112" x2="568" y2="112" stroke="#20211d14"/>
<line x1="0" y1="140" x2="568" y2="140" stroke="#20211d14"/>
<line x1="0" y1="168" x2="568" y2="168" stroke="#20211d14"/>
<line x1="0" y1="196" x2="568" y2="196" stroke="#20211d14"/>
<line x1="0" y1="224" x2="568" y2="224" stroke="#20211d14"/>
<line x1="0" y1="252" x2="568" y2="252" stroke="#20211d14"/>
<line x1="0" y1="280" x2="568" y2="280" stroke="#20211d14"/>
<line x1="0" y1="308" x2="568" y2="308" stroke="#20211d14"/>
<line x1="0" y1="336" x2="568" y2="336" stroke="#20211d14"/>
<line x1="0" y1="364" x2="568" y2="364" stroke="#20211d14"/>
<line x1="0" y1="392" x2="568" y2="392" stroke="#20211d14"/>
<line x1="0" y1="420" x2="568" y2="420" stroke="#20211d14"/>
<line x1="0" y1="448" x2="568" y2="448" stroke="#20211d14"/>
<line x1="0" y1="476" x2="568" y2="476" stroke="#20211d14"/>
<line x1="0" y1="504" x2="568" y2="504" stroke="#20211d14"/>
<line x1="0" y1="532" x2="568" y2="532" stroke="#20211d14"/>
<line x1="0" y1="560" x2="568" y2="560" stroke="#20211d14"/>
<line x1="0" y1="588" x2="568" y2="588" stroke="#20211d14"/>
<line x1="0" y1="616" x2="568" y2="616" stroke="#20211d14"/>
<line x1="0" y1="644" x2="568" y2="644" stroke="#20211d14"/>
<line x1="0" y1="672" x2="568" y2="672" stroke="#20211d14"/>
<line x1="0" y1="700" x2="568" y2="700" stroke="#20211d14"/>
<line x1="0" y1="728" x2="568" y2="728" stroke="#20211d14"/>
<line x1="0" y1="756" x2="568" y2="756" stroke="#20211d14"/>
<line x1="0" y1="784" x2="568" y2="784" stroke="#20211d14"/>
<line x1="0" y1="812" x2="568" y2="812" stroke="#20211d14"/>
<line x1="0" y1="840" x2="568" y2="840" stroke="#20211d14"/>
<line x1="0" y1="868" x2="568" y2="868" stroke="#20211d14"/>
<line x1="0" y1="896" x2="568" y2="896" stroke="#20211d14"/>
<line x1="0" y1="924" x2="568" y2="924" stroke="#20211d14"/>
<line x1="0" y1="952" x2="568" y2="952" stroke="#20211d14"/>
<line x1="0" y1="980" x2="568" y2="980" stroke="#20211d14"/>
<line x1="0" y1="1008" x2="568" y2="1008" stroke="#20211d14"/>
<line x1="0" y1="1036" x2="568" y2="1036" stroke="#20211d14"/>
<line x1="0" y1="1064" x2="568" y2="1064" stroke="#20211d14"/>
<line x1="0" y1="1092" x2="568" y2="1092" stroke="#20211d14"/>
<line x1="0" y1="1120" x2="568" y2="1120" stroke="#20211d14"/>
<line x1="0" y1="1148" x2="568" y2="1148" stroke="#20211d14"/>
  </g>
  <text x="48" y="28" font-family="Barlow Condensed, Helvetica, Arial, sans-serif" font-size="21" letter-spacing="0.04em" fill="#20211d">CURRENT ARCHITECTURE</text>
  <text x="48" y="46" font-size="11.5" fill="#5b5f57">First-release pipeline: deterministic synthetic data, star Bayesian network, fixed 70/30 fusion.</text>
  <g transform="translate(0, 20)">

  <path d="M 284.0 110.0 L 284.0 140.0" stroke="#20211d" stroke-width="2" fill="none" marker-end="url(#arrow-flow)"/>
  <path d="M 284.0 202.0 L 284.0 232.0" stroke="#20211d" stroke-width="2" fill="none" marker-end="url(#arrow-flow)"/>
  <path d="M 284.0 294.0 L 284.0 324.0" stroke="#20211d" stroke-width="2" fill="none" marker-end="url(#arrow-flow)"/>
  <path d="M 284.0 386.0 L 284.0 416.0" stroke="#20211d" stroke-width="2" fill="none" marker-end="url(#arrow-flow)"/>
  <path d="M 284.0 478.0 L 166.0 508.0" stroke="#2b5b8c" stroke-width="2.4" fill="none" marker-end="url(#arrow-model)"/>
  <path d="M 284.0 478.0 L 402.0 508.0" stroke="#2b5b8c" stroke-width="2.4" fill="none" marker-end="url(#arrow-model)"/>
  <path d="M 166.0 570.0 L 284.0 600.0" stroke="#2b5b8c" stroke-width="2.4" fill="none" marker-end="url(#arrow-model)"/>
  <path d="M 402.0 570.0 L 284.0 600.0" stroke="#2b5b8c" stroke-width="2.4" fill="none" marker-end="url(#arrow-model)"/>
  <path d="M 284.0 662.0 L 284.0 692.0" stroke="#d8531f" stroke-width="2.6" fill="none" marker-end="url(#arrow-intervention)"/>
  <path d="M 284.0 754.0 L 284.0 784.0" stroke="#d8531f" stroke-width="2.6" fill="none" marker-end="url(#arrow-intervention)"/>
  <path d="M 284.0 846.0 L 284.0 876.0" stroke="#d8531f" stroke-width="2.6" fill="none" marker-end="url(#arrow-intervention)"/>
  <path d="M 284.0 938.0 L 284.0 968.0" stroke="#20211d" stroke-width="2" fill="none" marker-end="url(#arrow-flow)"/>
  <g class="node node-data">
    <rect x="48.0" y="48.0" width="448.0" height="62.0" rx="6" fill="#faf6ec" stroke="#20211d" stroke-width="1.6"/>
    <text text-anchor="middle" font-family="IBM Plex Sans, Helvetica, Arial, sans-serif" font-size="12.5" fill="#20211d">
    <tspan x="272.0" y="76.5">Deterministic synthetic</tspan>
    <tspan x="272.0" y="91.5">tables</tspan>
    </text>
  </g>
  <g class="node node-data">
    <rect x="48.0" y="140.0" width="448.0" height="62.0" rx="6" fill="#faf6ec" stroke="#20211d" stroke-width="1.6"/>
    <text text-anchor="middle" font-family="IBM Plex Sans, Helvetica, Arial, sans-serif" font-size="12.5" fill="#20211d">
    <tspan x="272.0" y="176.0">Validation</tspan>
    </text>
  </g>
  <g class="node node-data">
    <rect x="48.0" y="232.0" width="448.0" height="62.0" rx="6" fill="#faf6ec" stroke="#20211d" stroke-width="1.6"/>
    <text text-anchor="middle" font-family="IBM Plex Sans, Helvetica, Arial, sans-serif" font-size="12.5" fill="#20211d">
    <tspan x="272.0" y="260.5">Retrospective OTIF +</tspan>
    <tspan x="272.0" y="275.5">7-cause rules</tspan>
    </text>
  </g>
  <g class="node node-data">
    <rect x="48.0" y="324.0" width="448.0" height="62.0" rx="6" fill="#faf6ec" stroke="#20211d" stroke-width="1.6"/>
    <text text-anchor="middle" font-family="IBM Plex Sans, Helvetica, Arial, sans-serif" font-size="12.5" fill="#20211d">
    <tspan x="272.0" y="352.5">Point-in-time order</tspan>
    <tspan x="272.0" y="367.5">features</tspan>
    </text>
  </g>
  <g class="node node-data">
    <rect x="48.0" y="416.0" width="448.0" height="62.0" rx="6" fill="#faf6ec" stroke="#20211d" stroke-width="1.6"/>
    <text text-anchor="middle" font-family="IBM Plex Sans, Helvetica, Arial, sans-serif" font-size="12.5" fill="#20211d">
    <tspan x="272.0" y="444.5">Chronological 60/20/20</tspan>
    <tspan x="272.0" y="459.5">split</tspan>
    </text>
  </g>
  <g class="node node-model">
    <rect x="48.0" y="508.0" width="212.0" height="62.0" rx="6" fill="#e7eef5" stroke="#2b5b8c" stroke-width="1.6"/>
    <text text-anchor="middle" font-family="IBM Plex Sans, Helvetica, Arial, sans-serif" font-size="12.5" fill="#20211d">
    <tspan x="154.0" y="536.5">XGBoost + calibration +</tspan>
    <tspan x="154.0" y="551.5">SHAP</tspan>
    </text>
  </g>
  <g class="node node-model">
    <rect x="284.0" y="508.0" width="212.0" height="62.0" rx="6" fill="#e7eef5" stroke="#2b5b8c" stroke-width="1.6"/>
    <text text-anchor="middle" font-family="IBM Plex Sans, Helvetica, Arial, sans-serif" font-size="12.5" fill="#20211d">
    <tspan x="390.0" y="536.5">7 causes direct to OTIF</tspan>
    <tspan x="390.0" y="551.5">(star BN)</tspan>
    </text>
  </g>
  <g class="node node-decision">
    <rect x="48.0" y="600.0" width="448.0" height="62.0" rx="6" fill="#f7e6da" stroke="#d8531f" stroke-width="1.6"/>
    <text text-anchor="middle" font-family="IBM Plex Sans, Helvetica, Arial, sans-serif" font-size="12.5" fill="#20211d">
    <tspan x="272.0" y="636.0">70/30 score fusion</tspan>
    </text>
  </g>
  <g class="node node-decision">
    <rect x="48.0" y="692.0" width="448.0" height="62.0" rx="6" fill="#f7e6da" stroke="#d8531f" stroke-width="1.6"/>
    <text text-anchor="middle" font-family="IBM Plex Sans, Helvetica, Arial, sans-serif" font-size="12.5" fill="#20211d">
    <tspan x="272.0" y="728.0">Fused threshold</tspan>
    </text>
  </g>
  <g class="node node-decision">
    <rect x="48.0" y="784.0" width="448.0" height="62.0" rx="6" fill="#f7e6da" stroke="#d8531f" stroke-width="1.6"/>
    <text text-anchor="middle" font-family="IBM Plex Sans, Helvetica, Arial, sans-serif" font-size="12.5" fill="#20211d">
    <tspan x="272.0" y="812.5">Mitigations + conflict</tspan>
    <tspan x="272.0" y="827.5">checks + impact</tspan>
    </text>
  </g>
  <g class="node node-product">
    <rect x="48.0" y="876.0" width="448.0" height="62.0" rx="6" fill="#faf6ec" stroke="#20211d" stroke-width="1.6"/>
    <text text-anchor="middle" font-family="IBM Plex Sans, Helvetica, Arial, sans-serif" font-size="12.5" fill="#20211d">
    <tspan x="272.0" y="904.5">Order queue + rollups +</tspan>
    <tspan x="272.0" y="919.5">Streamlit</tspan>
    </text>
  </g>
  <g class="node node-product">
    <rect x="48.0" y="968.0" width="448.0" height="62.0" rx="6" fill="#faf6ec" stroke="#20211d" stroke-width="1.6"/>
    <text text-anchor="middle" font-family="IBM Plex Sans, Helvetica, Arial, sans-serif" font-size="12.5" fill="#20211d">
    <tspan x="272.0" y="996.5">Append-only planner</tspan>
    <tspan x="272.0" y="1011.5">feedback</tspan>
    </text>
  </g>
  </g>
</svg>
