<svg xmlns="http://www.w3.org/2000/svg" viewBox="0 0 1134 1568" role="img" aria-labelledby="title desc" font-family="IBM Plex Sans, Helvetica, Arial, sans-serif">
  <title id="title">Target architecture</title>
  <desc id="desc">This iteration: Causal Intelligence Studio -- a 10-node mechanism Bayesian network (IN_FULL_FAILURE / LATE_DELIVERY -&gt; OTIF_MISS) plus exact structural do-operator scenarios, decision-support only.</desc>
  <defs>
    <marker id="arrow-flow" viewBox="0 0 10 10" refX="9" refY="5" markerWidth="7" markerHeight="7" orient="auto-start-reverse">
      <path d="M 0 0 L 10 5 L 0 10 z" fill="#20211d"/>
    </marker>
    <marker id="arrow-model" viewBox="0 0 10 10" refX="9" refY="5" markerWidth="7" markerHeight="7" orient="auto-start-reverse">
      <path d="M 0 0 L 10 5 L 0 10 z" fill="#2b5b8c"/>
    </marker>
    <marker id="arrow-intervention" viewBox="0 0 10 10" refX="9" refY="5" markerWidth="7" markerHeight="7" orient="auto-start-reverse">
      <path d="M 0 0 L 10 5 L 0 10 z" fill="#d8531f"/>
    </marker>
    <marker id="arrow-loop" viewBox="0 0 10 10" refX="9" refY="5" markerWidth="7" markerHeight="7" orient="auto-start-reverse">
      <path d="M 0 0 L 10 5 L 0 10 z" fill="#5b5f57"/>
    </marker>
  </defs>
  <rect x="0" y="0" width="1134" height="1568" fill="#f2ede1"/>
  <g opacity="0.55">
<line x1="0" y1="0" x2="0" y2="1568" stroke="#20211d14"/>
<line x1="28" y1="0" x2="28" y2="1568" stroke="#20211d14"/>
<line x1="56" y1="0" x2="56" y2="1568" stroke="#20211d14"/>
<line x1="84" y1="0" x2="84" y2="1568" stroke="#20211d14"/>
<line x1="112" y1="0" x2="112" y2="1568" stroke="#20211d14"/>
<line x1="140" y1="0" x2="140" y2="1568" stroke="#20211d14"/>
<line x1="168" y1="0" x2="168" y2="1568" stroke="#20211d14"/>
<line x1="196" y1="0" x2="196" y2="1568" stroke="#20211d14"/>
<line x1="224" y1="0" x2="224" y2="1568" stroke="#20211d14"/>
<line x1="252" y1="0" x2="252" y2="1568" stroke="#20211d14"/>
<line x1="280" y1="0" x2="280" y2="1568" stroke="#20211d14"/>
<line x1="308" y1="0" x2="308" y2="1568" stroke="#20211d14"/>
<line x1="336" y1="0" x2="336" y2="1568" stroke="#20211d14"/>
<line x1="364" y1="0" x2="364" y2="1568" stroke="#20211d14"/>
<line x1="392" y1="0" x2="392" y2="1568" stroke="#20211d14"/>
<line x1="420" y1="0" x2="420" y2="1568" stroke="#20211d14"/>
<line x1="448" y1="0" x2="448" y2="1568" stroke="#20211d14"/>
<line x1="476" y1="0" x2="476" y2="1568" stroke="#20211d14"/>
<line x1="504" y1="0" x2="504" y2="1568" stroke="#20211d14"/>
<line x1="532" y1="0" x2="532" y2="1568" stroke="#20211d14"/>
<line x1="560" y1="0" x2="560" y2="1568" stroke="#20211d14"/>
<line x1="588" y1="0" x2="588" y2="1568" stroke="#20211d14"/>
<line x1="616" y1="0" x2="616" y2="1568" stroke="#20211d14"/>
<line x1="644" y1="0" x2="644" y2="1568" stroke="#20211d14"/>
<line x1="672" y1="0" x2="672" y2="1568" stroke="#20211d14"/>
<line x1="700" y1="0" x2="700" y2="1568" stroke="#20211d14"/>
<line x1="728" y1="0" x2="728" y2="1568" stroke="#20211d14"/>
<line x1="756" y1="0" x2="756" y2="1568" stroke="#20211d14"/>
<line x1="784" y1="0" x2="784" y2="1568" stroke="#20211d14"/>
<line x1="812" y1="0" x2="812" y2="1568" stroke="#20211d14"/>
<line x1="840" y1="0" x2="840" y2="1568" stroke="#20211d14"/>
<line x1="868" y1="0" x2="868" y2="1568" stroke="#20211d14"/>
<line x1="896" y1="0" x2="896" y2="1568" stroke="#20211d14"/>
<line x1="924" y1="0" x2="924" y2="1568" stroke="#20211d14"/>
<line x1="952" y1="0" x2="952" y2="1568" stroke="#20211d14"/>
<line x1="980" y1="0" x2="980" y2="1568" stroke="#20211d14"/>
<line x1="1008" y1="0" x2="1008" y2="1568" stroke="#20211d14"/>
<line x1="1036" y1="0" x2="1036" y2="1568" stroke="#20211d14"/>
<line x1="1064" y1="0" x2="1064" y2="1568" stroke="#20211d14"/>
<line x1="1092" y1="0" x2="1092" y2="1568" stroke="#20211d14"/>
<line x1="1120" y1="0" x2="1120" y2="1568" stroke="#20211d14"/>
<line x1="0" y1="0" x2="1134" y2="0" stroke="#20211d14"/>
<line x1="0" y1="28" x2="1134" y2="28" stroke="#20211d14"/>
<line x1="0" y1="56" x2="1134" y2="56" stroke="#20211d14"/>
<line x1="0" y1="84" x2="1134" y2="84" stroke="#20211d14"/>
<line x1="0" y1="112" x2="1134" y2="112" stroke="#20211d14"/>
<line x1="0" y1="140" x2="1134" y2="140" stroke="#20211d14"/>
<line x1="0" y1="168" x2="1134" y2="168" stroke="#20211d14"/>
<line x1="0" y1="196" x2="1134" y2="196" stroke="#20211d14"/>
<line x1="0" y1="224" x2="1134" y2="224" stroke="#20211d14"/>
<line x1="0" y1="252" x2="1134" y2="252" stroke="#20211d14"/>
<line x1="0" y1="280" x2="1134" y2="280" stroke="#20211d14"/>
<line x1="0" y1="308" x2="1134" y2="308" stroke="#20211d14"/>
<line x1="0" y1="336" x2="1134" y2="336" stroke="#20211d14"/>
<line x1="0" y1="364" x2="1134" y2="364" stroke="#20211d14"/>
<line x1="0" y1="392" x2="1134" y2="392" stroke="#20211d14"/>
<line x1="0" y1="420" x2="1134" y2="420" stroke="#20211d14"/>
<line x1="0" y1="448" x2="1134" y2="448" stroke="#20211d14"/>
<line x1="0" y1="476" x2="1134" y2="476" stroke="#20211d14"/>
<line x1="0" y1="504" x2="1134" y2="504" stroke="#20211d14"/>
<line x1="0" y1="532" x2="1134" y2="532" stroke="#20211d14"/>
<line x1="0" y1="560" x2="1134" y2="560" stroke="#20211d14"/>
<line x1="0" y1="588" x2="1134" y2="588" stroke="#20211d14"/>
<line x1="0" y1="616" x2="1134" y2="616" stroke="#20211d14"/>
<line x1="0" y1="644" x2="1134" y2="644" stroke="#20211d14"/>
<line x1="0" y1="672" x2="1134" y2="672" stroke="#20211d14"/>
<line x1="0" y1="700" x2="1134" y2="700" stroke="#20211d14"/>
<line x1="0" y1="728" x2="1134" y2="728" stroke="#20211d14"/>
<line x1="0" y1="756" x2="1134" y2="756" stroke="#20211d14"/>
<line x1="0" y1="784" x2="1134" y2="784" stroke="#20211d14"/>
<line x1="0" y1="812" x2="1134" y2="812" stroke="#20211d14"/>
<line x1="0" y1="840" x2="1134" y2="840" stroke="#20211d14"/>
<line x1="0" y1="868" x2="1134" y2="868" stroke="#20211d14"/>
<line x1="0" y1="896" x2="1134" y2="896" stroke="#20211d14"/>
<line x1="0" y1="924" x2="1134" y2="924" stroke="#20211d14"/>
<line x1="0" y1="952" x2="1134" y2="952" stroke="#20211d14"/>
<line x1="0" y1="980" x2="1134" y2="980" stroke="#20211d14"/>
<line x1="0" y1="1008" x2="1134" y2="1008" stroke="#20211d14"/>
<line x1="0" y1="1036" x2="1134" y2="1036" stroke="#20211d14"/>
<line x1="0" y1="1064" x2="1134" y2="1064" stroke="#20211d14"/>
<line x1="0" y1="1092" x2="1134" y2="1092" stroke="#20211d14"/>
<line x1="0" y1="1120" x2="1134" y2="1120" stroke="#20211d14"/>
<line x1="0" y1="1148" x2="1134" y2="1148" stroke="#20211d14"/>
<line x1="0" y1="1176" x2="1134" y2="1176" stroke="#20211d14"/>
<line x1="0" y1="1204" x2="1134" y2="1204" stroke="#20211d14"/>
<line x1="0" y1="1232" x2="1134" y2="1232" stroke="#20211d14"/>
<line x1="0" y1="1260" x2="1134" y2="1260" stroke="#20211d14"/>
<line x1="0" y1="1288" x2="1134" y2="1288" stroke="#20211d14"/>
<line x1="0" y1="1316" x2="1134" y2="1316" stroke="#20211d14"/>
<line x1="0" y1="1344" x2="1134" y2="1344" stroke="#20211d14"/>
<line x1="0" y1="1372" x2="1134" y2="1372" stroke="#20211d14"/>
<line x1="0" y1="1400" x2="1134" y2="1400" stroke="#20211d14"/>
<line x1="0" y1="1428" x2="1134" y2="1428" stroke="#20211d14"/>
<line x1="0" y1="1456" x2="1134" y2="1456" stroke="#20211d14"/>
<line x1="0" y1="1484" x2="1134" y2="1484" stroke="#20211d14"/>
<line x1="0" y1="1512" x2="1134" y2="1512" stroke="#20211d14"/>
<line x1="0" y1="1540" x2="1134" y2="1540" stroke="#20211d14"/>
  </g>
  <text x="48" y="28" font-family="Barlow Condensed, Helvetica, Arial, sans-serif" font-size="21" letter-spacing="0.04em" fill="#20211d">TARGET ARCHITECTURE</text>
  <text x="48" y="46" font-size="11.5" fill="#5b5f57">This iteration: Causal Intelligence Studio -- a 10-node mechanism Bayesian network (IN_FULL_FAILURE / LATE_DELIVERY -&gt; OTIF_MISS) plus exact structural do-operator scenarios, decision-support only.</text>
  <g transform="translate(0, 20)">
  <g class="band">
    <rect x="32.0" y="22.0" width="716.0" height="288.0" rx="10" fill="none" stroke="#2b5b8c" stroke-width="1.4" stroke-dasharray="3,5"/>
    <text x="44.0" y="38.0" font-family="Barlow Condensed, Helvetica, Arial, sans-serif" font-size="13" letter-spacing="0.06em" fill="#2b5b8c">NOISY SUPPLY-CHAIN DIGITAL TWIN</text>
  </g>
  <g class="band">
    <rect x="79.2" y="1245.6" width="668.8" height="196.0" rx="10" fill="none" stroke="#5b5f57" stroke-width="1.4" stroke-dasharray="3,5"/>
    <text x="91.2" y="1261.6" font-family="Barlow Condensed, Helvetica, Arial, sans-serif" font-size="13" letter-spacing="0.06em" fill="#5b5f57">LOCAL OPERATING-LOOP SIMULATION</text>
  </g>
  <path d="M 166.0 110.0 L 402.0 140.0" stroke="#20211d" stroke-width="2" fill="none" marker-end="url(#arrow-flow)"/>
  <path d="M 402.0 110.0 L 402.0 140.0" stroke="#20211d" stroke-width="2" fill="none" marker-end="url(#arrow-flow)"/>
  <path d="M 638.0 110.0 L 402.0 140.0" stroke="#20211d" stroke-width="2" fill="none" marker-end="url(#arrow-flow)"/>
  <path d="M 402.0 202.0 L 402.0 232.0" stroke="#20211d" stroke-width="2" fill="none" marker-end="url(#arrow-flow)"/>
  <path d="M 402.0 294.0 L 402.0 324.0" stroke="#20211d" stroke-width="2" fill="none" marker-end="url(#arrow-flow)"/>
  <path d="M 402.0 386.0 L 260.4 416.0" stroke="#20211d" stroke-width="2" fill="none" marker-end="url(#arrow-flow)"/>
  <path d="M 402.0 386.0 L 614.4 416.0" stroke="#20211d" stroke-width="2" fill="none" marker-end="url(#arrow-flow)"/>
  <path d="M 260.4 478.0 L 260.4 508.0" stroke="#20211d" stroke-width="2" fill="none" marker-end="url(#arrow-flow)"/>
  <path d="M 614.4 478.0 L 614.4 508.0" stroke="#20211d" stroke-width="2" fill="none" marker-end="url(#arrow-flow)"/>
  <path d="M 614.4 570.0 L 496.4 600.0" stroke="#2b5b8c" stroke-width="2.4" fill="none" marker-end="url(#arrow-model)"/>
  <path d="M 496.4 662.0 L 496.4 692.0" stroke="#2b5b8c" stroke-width="2.4" fill="none" marker-end="url(#arrow-model)"/>
  <path d="M 614.4 570.0 L 791.4 600.0" stroke="#2b5b8c" stroke-width="2.4" fill="none" marker-end="url(#arrow-model)"/>
  <path d="M 791.4 662.0 L 685.2 692.0" stroke="#2b5b8c" stroke-width="2.4" fill="none" marker-end="url(#arrow-model)"/>
  <path d="M 791.4 662.0 L 968.4 692.0" stroke="#2b5b8c" stroke-width="2.4" fill="none" marker-end="url(#arrow-model)"/>
  <path d="M 496.4 662.0 L 614.4 784.0" stroke="#2b5b8c" stroke-width="2.4" fill="none" marker-end="url(#arrow-model)"/>
  <path d="M 685.2 754.0 L 614.4 784.0" stroke="#2b5b8c" stroke-width="2.4" fill="none" marker-end="url(#arrow-model)"/>
  <path d="M 614.4 846.0 L 614.4 876.0" stroke="#d8531f" stroke-width="2.6" fill="none" marker-end="url(#arrow-intervention)"/>
  <path d="M 260.4 570.0 L 213.2 968.0" stroke="#d8531f" stroke-width="2.6" fill="none" marker-end="url(#arrow-intervention)"/>
  <path d="M 496.4 754.0 L 496.4 968.0" stroke="#d8531f" stroke-width="2.6" fill="none" marker-end="url(#arrow-intervention)"/>
  <path d="M 685.2 754.0 L 496.4 968.0" stroke="#d8531f" stroke-width="2.6" fill="none" marker-end="url(#arrow-intervention)"/>
  <path d="M 614.4 938.0 L 779.6 968.0" stroke="#d8531f" stroke-width="2.6" fill="none" marker-end="url(#arrow-intervention)"/>
  <path d="M 307.2 999.0 L 378.4 1091.0" stroke="#d8531f" stroke-width="2.6" fill="none" marker-end="url(#arrow-intervention)"/>
  <path d="M 496.4 1030.0 L 496.4 1060.0" stroke="#d8531f" stroke-width="2.6" fill="none" marker-end="url(#arrow-intervention)"/>
  <path d="M 661.6 999.0 L 590.4 1091.0" stroke="#d8531f" stroke-width="2.6" fill="none" marker-end="url(#arrow-intervention)"/>
  <path d="M 378.4 1091.0 L 307.2 1183.0" stroke="#20211d" stroke-width="2" fill="none" marker-end="url(#arrow-flow)"/>
  <path d="M 496.4 1122.0 L 496.4 1152.0" stroke="#20211d" stroke-width="2" fill="none" marker-end="url(#arrow-flow)"/>
  <path d="M 590.4 1091.0 L 661.6 1183.0" stroke="#20211d" stroke-width="2" fill="none" marker-end="url(#arrow-flow)"/>
  <path d="M 968.4 754.0 L 779.6 1152.0" stroke="#5b5f57" stroke-width="2" fill="none" marker-end="url(#arrow-loop)" stroke-dasharray="6,4"/>
  <text x="874.0" y="947.0" text-anchor="middle" font-family="IBM Plex Sans, Helvetica, Arial, sans-serif" font-size="10.5" font-style="italic" fill="#5b5f57">decision-support only, never feeds G/H</text>
  <path d="M 496.4 1122.0 L 213.2 1271.6" stroke="#20211d" stroke-width="2" fill="none" marker-end="url(#arrow-flow)"/>
  <path d="M 307.2 1302.6 L 307.6 1302.6" stroke="#5b5f57" stroke-width="2" fill="none" marker-end="url(#arrow-loop)" stroke-dasharray="6,4"/>
  <path d="M 519.6 1302.6 L 520.0 1302.6" stroke="#5b5f57" stroke-width="2" fill="none" marker-end="url(#arrow-loop)" stroke-dasharray="6,4"/>
  <path d="M 520.0 1302.6 L 401.6 1394.6" stroke="#5b5f57" stroke-width="2" fill="none" marker-end="url(#arrow-loop)" stroke-dasharray="6,4"/>
  <path d="M 401.6 1394.6 L 425.6 1394.6" stroke="#5b5f57" stroke-width="2" fill="none" marker-end="url(#arrow-loop)" stroke-dasharray="6,4"/>
  <text x="413.6" y="1388.6" text-anchor="middle" font-family="IBM Plex Sans, Helvetica, Arial, sans-serif" font-size="10.5" font-style="italic" fill="#5b5f57">scheduled or triggered</text>
  <path d="M 425.6 1394.6 L 307.2 1302.6" stroke="#5b5f57" stroke-width="2" fill="none" marker-end="url(#arrow-loop)" stroke-dasharray="6,4"/>
  <g class="node node-loop">
    <rect x="48.0" y="48.0" width="212.0" height="62.0" rx="6" fill="#efe9d8" stroke="#5b5f57" stroke-width="1.6"/>
    <text text-anchor="middle" font-family="IBM Plex Sans, Helvetica, Arial, sans-serif" font-size="12.5" fill="#20211d">
    <tspan x="154.0" y="69.0">Stable</tspan>
    <tspan x="154.0" y="84.0">vendor/SKU/lane/DC/customer</tspan>
    <tspan x="154.0" y="99.0">traits</tspan>
    </text>
  </g>
  <g class="node node-loop">
    <rect x="284.0" y="48.0" width="212.0" height="62.0" rx="6" fill="#efe9d8" stroke="#5b5f57" stroke-width="1.6"/>
    <text text-anchor="middle" font-family="IBM Plex Sans, Helvetica, Arial, sans-serif" font-size="12.5" fill="#20211d">
    <tspan x="390.0" y="76.5">Seasonality + correlated</tspan>
    <tspan x="390.0" y="91.5">shocks</tspan>
    </text>
  </g>
  <g class="node node-loop">
    <rect x="520.0" y="48.0" width="212.0" height="62.0" rx="6" fill="#efe9d8" stroke="#5b5f57" stroke-width="1.6"/>
    <text text-anchor="middle" font-family="IBM Plex Sans, Helvetica, Arial, sans-serif" font-size="12.5" fill="#20211d">
    <tspan x="626.0" y="76.5">Partial observability +</tspan>
    <tspan x="626.0" y="91.5">noise</tspan>
    </text>
  </g>
  <g class="node node-loop">
    <rect x="284.0" y="140.0" width="212.0" height="62.0" rx="6" fill="#efe9d8" stroke="#5b5f57" stroke-width="1.6"/>
    <text text-anchor="middle" font-family="IBM Plex Sans, Helvetica, Arial, sans-serif" font-size="12.5" fill="#20211d">
    <tspan x="390.0" y="168.5">Line + order lifecycle</tspan>
    <tspan x="390.0" y="183.5">simulation</tspan>
    </text>
  </g>
  <g class="node node-loop">
    <rect x="284.0" y="232.0" width="212.0" height="62.0" rx="6" fill="#efe9d8" stroke="#5b5f57" stroke-width="1.6"/>
    <text text-anchor="middle" font-family="IBM Plex Sans, Helvetica, Arial, sans-serif" font-size="12.5" fill="#20211d">
    <tspan x="390.0" y="260.5">Ground-truth causes,</tspan>
    <tspan x="390.0" y="275.5">outcomes, response</tspan>
    </text>
  </g>
  <g class="node node-data">
    <rect x="284.0" y="324.0" width="212.0" height="62.0" rx="6" fill="#faf6ec" stroke="#20211d" stroke-width="1.6"/>
    <text text-anchor="middle" font-family="IBM Plex Sans, Helvetica, Arial, sans-serif" font-size="12.5" fill="#20211d">
    <tspan x="390.0" y="352.5">Data contracts + quality</tspan>
    <tspan x="390.0" y="367.5">report</tspan>
    </text>
  </g>
  <g class="node node-data">
    <rect x="142.4" y="416.0" width="212.0" height="62.0" rx="6" fill="#faf6ec" stroke="#20211d" stroke-width="1.6"/>
    <text text-anchor="middle" font-family="IBM Plex Sans, Helvetica, Arial, sans-serif" font-size="12.5" fill="#20211d">
    <tspan x="248.4" y="444.5">Retrospective multi-</tspan>
    <tspan x="248.4" y="459.5">cause derivation</tspan>
    </text>
  </g>
  <g class="node node-data">
    <rect x="496.4" y="416.0" width="212.0" height="62.0" rx="6" fill="#faf6ec" stroke="#20211d" stroke-width="1.6"/>
    <text text-anchor="middle" font-family="IBM Plex Sans, Helvetica, Arial, sans-serif" font-size="12.5" fill="#20211d">
    <tspan x="602.4" y="444.5">Point-in-time feature</tspan>
    <tspan x="602.4" y="459.5">snapshots</tspan>
    </text>
  </g>
  <g class="node node-data">
    <rect x="142.4" y="508.0" width="212.0" height="62.0" rx="6" fill="#faf6ec" stroke="#20211d" stroke-width="1.6"/>
    <text text-anchor="middle" font-family="IBM Plex Sans, Helvetica, Arial, sans-serif" font-size="12.5" fill="#20211d">
    <tspan x="248.4" y="536.5">Cause + line-evidence</tspan>
    <tspan x="248.4" y="551.5">truth</tspan>
    </text>
  </g>
  <g class="node node-data">
    <rect x="496.4" y="508.0" width="212.0" height="62.0" rx="6" fill="#faf6ec" stroke="#20211d" stroke-width="1.6"/>
    <text text-anchor="middle" font-family="IBM Plex Sans, Helvetica, Arial, sans-serif" font-size="12.5" fill="#20211d">
    <tspan x="602.4" y="536.5">Rolling-origin</tspan>
    <tspan x="602.4" y="551.5">train/validation/test</tspan>
    </text>
  </g>
  <g class="node node-model">
    <rect x="378.4" y="600.0" width="212.0" height="62.0" rx="6" fill="#e7eef5" stroke="#2b5b8c" stroke-width="1.6"/>
    <text text-anchor="middle" font-family="IBM Plex Sans, Helvetica, Arial, sans-serif" font-size="12.5" fill="#20211d">
    <tspan x="484.4" y="636.0">XGBoost order-risk model</tspan>
    </text>
  </g>
  <g class="node node-model">
    <rect x="638.0" y="600.0" width="282.8" height="62.0" rx="6" fill="#e7eef5" stroke="#2b5b8c" stroke-width="1.6"/>
    <text text-anchor="middle" font-family="IBM Plex Sans, Helvetica, Arial, sans-serif" font-size="12.5" fill="#20211d">
    <tspan x="779.4" y="606.0">10-node mechanism</tspan>
    <tspan x="779.4" y="621.0">Bayesian network</tspan>
    <tspan x="779.4" y="636.0">(IN_FULL_FAILURE /</tspan>
    <tspan x="779.4" y="651.0">LATE_DELIVERY -&gt;</tspan>
    <tspan x="779.4" y="666.0">OTIF_MISS)</tspan>
    </text>
  </g>
  <g class="node node-model">
    <rect x="378.4" y="692.0" width="212.0" height="62.0" rx="6" fill="#e7eef5" stroke="#2b5b8c" stroke-width="1.6"/>
    <text text-anchor="middle" font-family="IBM Plex Sans, Helvetica, Arial, sans-serif" font-size="12.5" fill="#20211d">
    <tspan x="484.4" y="728.0">Calibration + SHAP</tspan>
    </text>
  </g>
  <g class="node node-model">
    <rect x="567.2" y="692.0" width="212.0" height="62.0" rx="6" fill="#e7eef5" stroke="#2b5b8c" stroke-width="1.6"/>
    <text text-anchor="middle" font-family="IBM Plex Sans, Helvetica, Arial, sans-serif" font-size="12.5" fill="#20211d">
    <tspan x="673.2" y="713.0">Exact posterior +</tspan>
    <tspan x="673.2" y="728.0">mechanism split +</tspan>
    <tspan x="673.2" y="743.0">attribution</tspan>
    </text>
  </g>
  <g class="node node-model">
    <rect x="850.4" y="692.0" width="212.0" height="62.0" rx="6" fill="#e7eef5" stroke="#2b5b8c" stroke-width="1.6"/>
    <text text-anchor="middle" font-family="IBM Plex Sans, Helvetica, Arial, sans-serif" font-size="12.5" fill="#20211d">
    <tspan x="956.4" y="720.5">Exact do-operator</tspan>
    <tspan x="956.4" y="735.5">intervention scenarios</tspan>
    </text>
  </g>
  <g class="node node-decision">
    <rect x="496.4" y="784.0" width="212.0" height="62.0" rx="6" fill="#f7e6da" stroke="#d8531f" stroke-width="1.6"/>
    <text text-anchor="middle" font-family="IBM Plex Sans, Helvetica, Arial, sans-serif" font-size="12.5" fill="#20211d">
    <tspan x="602.4" y="820.0">Validated score fusion</tspan>
    </text>
  </g>
  <g class="node node-decision">
    <rect x="496.4" y="876.0" width="212.0" height="62.0" rx="6" fill="#f7e6da" stroke="#d8531f" stroke-width="1.6"/>
    <text text-anchor="middle" font-family="IBM Plex Sans, Helvetica, Arial, sans-serif" font-size="12.5" fill="#20211d">
    <tspan x="602.4" y="904.5">Capacity-aware operating</tspan>
    <tspan x="602.4" y="919.5">threshold</tspan>
    </text>
  </g>
  <g class="node node-decision">
    <rect x="95.2" y="968.0" width="212.0" height="62.0" rx="6" fill="#f7e6da" stroke="#d8531f" stroke-width="1.6"/>
    <text text-anchor="middle" font-family="IBM Plex Sans, Helvetica, Arial, sans-serif" font-size="12.5" fill="#20211d">
    <tspan x="201.2" y="1004.0">Affected-SKU evidence</tspan>
    </text>
  </g>
  <g class="node node-decision">
    <rect x="378.4" y="968.0" width="212.0" height="62.0" rx="6" fill="#f7e6da" stroke="#d8531f" stroke-width="1.6"/>
    <text text-anchor="middle" font-family="IBM Plex Sans, Helvetica, Arial, sans-serif" font-size="12.5" fill="#20211d">
    <tspan x="484.4" y="1004.0">Order explanation</tspan>
    </text>
  </g>
  <g class="node node-decision">
    <rect x="661.6" y="968.0" width="212.0" height="62.0" rx="6" fill="#f7e6da" stroke="#d8531f" stroke-width="1.6"/>
    <text text-anchor="middle" font-family="IBM Plex Sans, Helvetica, Arial, sans-serif" font-size="12.5" fill="#20211d">
    <tspan x="767.6" y="996.5">Resource-aware</tspan>
    <tspan x="767.6" y="1011.5">intervention policy</tspan>
    </text>
  </g>
  <g class="node node-decision">
    <rect x="378.4" y="1060.0" width="212.0" height="62.0" rx="6" fill="#f7e6da" stroke="#d8531f" stroke-width="1.6"/>
    <text text-anchor="middle" font-family="IBM Plex Sans, Helvetica, Arial, sans-serif" font-size="12.5" fill="#20211d">
    <tspan x="484.4" y="1088.5">Unified intervention</tspan>
    <tspan x="484.4" y="1103.5">record</tspan>
    </text>
  </g>
  <g class="node node-product">
    <rect x="95.2" y="1152.0" width="212.0" height="62.0" rx="6" fill="#faf6ec" stroke="#20211d" stroke-width="1.6"/>
    <text text-anchor="middle" font-family="IBM Plex Sans, Helvetica, Arial, sans-serif" font-size="12.5" fill="#20211d">
    <tspan x="201.2" y="1188.0">Order desk</tspan>
    </text>
  </g>
  <g class="node node-product">
    <rect x="378.4" y="1152.0" width="212.0" height="62.0" rx="6" fill="#faf6ec" stroke="#20211d" stroke-width="1.6"/>
    <text text-anchor="middle" font-family="IBM Plex Sans, Helvetica, Arial, sans-serif" font-size="12.5" fill="#20211d">
    <tspan x="484.4" y="1180.5">Portfolio + hotspot</tspan>
    <tspan x="484.4" y="1195.5">views</tspan>
    </text>
  </g>
  <g class="node node-product">
    <rect x="661.6" y="1152.0" width="212.0" height="62.0" rx="6" fill="#faf6ec" stroke="#20211d" stroke-width="1.6"/>
    <text text-anchor="middle" font-family="IBM Plex Sans, Helvetica, Arial, sans-serif" font-size="12.5" fill="#20211d">
    <tspan x="767.6" y="1173.0">Causal Intelligence</tspan>
    <tspan x="767.6" y="1188.0">Studio (mechanism graph,</tspan>
    <tspan x="767.6" y="1203.0">attribution, scenarios)</tspan>
    </text>
  </g>
  <g class="node node-loop">
    <rect x="95.2" y="1271.6" width="212.0" height="62.0" rx="6" fill="#efe9d8" stroke="#5b5f57" stroke-width="1.6"/>
    <text text-anchor="middle" font-family="IBM Plex Sans, Helvetica, Arial, sans-serif" font-size="12.5" fill="#20211d">
    <tspan x="201.2" y="1307.6">Daily open-order scoring</tspan>
    </text>
  </g>
  <g class="node node-loop">
    <rect x="307.6" y="1271.6" width="212.0" height="62.0" rx="6" fill="#efe9d8" stroke="#5b5f57" stroke-width="1.6"/>
    <text text-anchor="middle" font-family="IBM Plex Sans, Helvetica, Arial, sans-serif" font-size="12.5" fill="#20211d">
    <tspan x="413.6" y="1307.6">Orders close</tspan>
    </text>
  </g>
  <g class="node node-loop">
    <rect x="520.0" y="1271.6" width="212.0" height="62.0" rx="6" fill="#efe9d8" stroke="#5b5f57" stroke-width="1.6"/>
    <text text-anchor="middle" font-family="IBM Plex Sans, Helvetica, Arial, sans-serif" font-size="12.5" fill="#20211d">
    <tspan x="626.0" y="1300.1">Outcomes + derived</tspan>
    <tspan x="626.0" y="1315.1">causes</tspan>
    </text>
  </g>
  <g class="node node-loop">
    <rect x="189.6" y="1363.6" width="212.0" height="62.0" rx="6" fill="#efe9d8" stroke="#5b5f57" stroke-width="1.6"/>
    <text text-anchor="middle" font-family="IBM Plex Sans, Helvetica, Arial, sans-serif" font-size="12.5" fill="#20211d">
    <tspan x="295.6" y="1392.1">Feedback + drift +</tspan>
    <tspan x="295.6" y="1407.1">performance</tspan>
    </text>
  </g>
  <g class="node node-loop">
    <rect x="425.6" y="1363.6" width="212.0" height="62.0" rx="6" fill="#efe9d8" stroke="#5b5f57" stroke-width="1.6"/>
    <text text-anchor="middle" font-family="IBM Plex Sans, Helvetica, Arial, sans-serif" font-size="12.5" fill="#20211d">
    <tspan x="531.6" y="1399.6">Versioned retraining</tspan>
    </text>
  </g>
  </g>
</svg>
